<svg xmlns="http://www.w3.org/2000/svg" width="108" height="108" viewBox="0 0 108 108">
  <circle cx="54" cy="54" r="48" fill="#007AFF"/>
  <g transform="translate(24,24) scale(2.5,2.5)">
    <path fill="#FFFFFF" d="M4,16c0,0.88 0.39,1.67 1,2.22L5,20c0,0.55 0.45,1 1,1h1c0.55,0 1,-0.45 1,-1v-1h8v1c0,0.55 0.45,1 1,1h1c0.55,0 1,-0.45 1,-1l0,-1.78c0.61,-0.55 1,-1.34 1,-2.22L20,6c0,-3.5 -3.58,-4 -8,-4s-8,0.5 -8,4v10zM7.5,17c-0.83,0 -1.5,-0.67 -1.5,-1.5s0.67,-1.5 1.5,-1.5 1.5,0.67 1.5,1.5 -0.67,1.5 -1.5,1.5zM16.5,17c-0.83,0 -1.5,-0.67 -1.5,-1.5s0.67,-1.5 1.5,-1.5 1.5,0.67 1.5,1.5 -0.67,1.5 -1.5,1.5zM18,12L6,12L6,6h12v6z"/>
  </g>
</svg>
